<svg xmlns="http://www.w3.org/2000/svg" width="583" height="582" viewBox="0 0 583 582" version="1.1"><path d="M 278.750 160.689 C 277.228 161.087, 277 162.474, 276.996 171.323 C 276.989 190.318, 273.044 207.156, 264.849 223.165 C 253.434 245.466, 233.916 265.293, 213.720 275.105 C 211.124 276.367, 209 277.772, 209 278.228 C 209 279.753, 215.230 291.435, 219.032 297.040 C 224.882 305.665, 224.761 305.628, 232.245 301.082 C 259.860 284.305, 297.199 280.301, 330.171 290.579 C 334.752 292.007, 343.522 295.795, 349.661 298.997 L 360.821 304.819 362.761 302.660 C 367.219 297.695, 374.662 284.989, 376.396 279.382 C 376.930 277.657, 376.444 277.014, 373.776 275.917 C 366.245 272.820, 350.199 260.910, 341.754 252.150 C 320.216 229.808, 309.012 202.343, 309.003 171.867 C 309 161.686, 308.904 161.208, 306.750 160.630 C 304.192 159.945, 281.415 159.993, 278.750 160.689 M 251.250 169.047 L 244 173.068 244 177.617 C 244 187.793, 238.447 203.794, 230.475 216.590 C 226.003 223.767, 213.650 236.420, 206.643 241 L 202.819 243.500 203.389 251.397 C 203.703 255.740, 204.182 259.515, 204.452 259.786 C 205.257 260.590, 215.626 253.929, 223.322 247.664 C 239.764 234.278, 251.607 215.533, 257.074 194.242 C 259.227 185.853, 260.890 164.991, 259.403 165.013 C 258.906 165.020, 255.238 166.836, 251.250 169.047 M 326.317 175.750 C 327.788 201.168, 337.004 221.852, 355 240.123 C 362.979 248.224, 378.378 260, 380.992 260 C 381.839 260, 383 252.477, 383 246.993 C 383 243.713, 382.490 242.930, 378.750 240.471 C 376.413 238.933, 371.200 234.486, 367.166 230.588 C 353.160 217.053, 343.896 198.008, 342.107 179.070 L 341.500 172.640 334.500 168.836 C 330.650 166.743, 327.094 165.024, 326.597 165.016 C 326.077 165.007, 325.958 169.559, 326.317 175.750 M 289.259 242.250 C 288.082 244.588, 285.955 248.391, 284.531 250.703 L 281.943 254.906 292.024 254.870 L 302.105 254.834 299.526 250.667 C 298.108 248.375, 295.970 244.588, 294.774 242.250 C 293.579 239.912, 292.331 238, 292 238 C 291.669 238, 290.436 239.912, 289.259 242.250 M 274.334 303.481 C 262.379 305.650, 250.540 310.052, 240.906 315.911 L 237.854 317.767 245.278 322.394 L 252.702 327.022 258.101 324.636 C 279.027 315.390, 306.775 315.323, 327.359 324.468 L 333.218 327.071 340.706 322.404 C 349.002 317.233, 349.068 317.762, 339.500 312.816 C 321.100 303.305, 295.508 299.639, 274.334 303.481 M 258.302 385.645 C 257.418 386.004, 257.381 386.742, 258.163 388.458 C 258.967 390.223, 258.702 393.281, 257.065 401.142 C 255.878 406.839, 254.745 412.288, 254.547 413.250 C 254.249 414.701, 254.921 415, 258.482 415 C 262.664 415, 262.794 414.901, 263.422 411.250 C 264.978 402.202, 267.501 392.441, 268.459 391.765 C 272.166 389.150, 272.897 392.597, 270.599 401.856 C 269.828 404.960, 268.908 409.188, 268.553 411.250 L 267.909 415 272.319 415 L 276.728 415 277.334 410.579 C 278.599 401.349, 281.224 391.851, 282.663 391.299 C 285.779 390.103, 286.094 392.599, 284.009 401.959 C 281.786 411.938, 281.990 414.545, 285.067 415.521 C 288.278 416.540, 294 414.167, 294 411.815 C 294 410.422, 293.530 409.967, 292.500 410.362 C 290.495 411.131, 290.576 409.553, 293.092 398.838 C 295.035 390.561, 295.069 389.754, 293.569 387.464 C 291.703 384.617, 288.322 384.265, 284.051 386.474 C 281.540 387.772, 281.056 387.772, 279.978 386.474 C 278.415 384.591, 274.691 384.591, 271.048 386.475 C 268.533 387.776, 268.128 387.776, 267.629 386.475 C 267.079 385.043, 261.093 384.510, 258.302 385.645 M 304.286 385.650 C 303.342 386.033, 303.338 386.568, 304.265 388.053 C 305.212 389.569, 305.075 391.774, 303.601 398.732 C 302.580 403.554, 301.412 409.188, 301.006 411.250 L 300.269 415 304.555 415 C 309.227 415, 308.898 415.505, 310.577 405.750 C 311.144 402.459, 311.567 402, 314.035 402 C 316.835 402, 316.847 402.028, 316.674 408.204 C 316.510 414.039, 316.654 414.464, 319.083 415.339 C 320.903 415.994, 322.529 415.855, 324.583 414.871 C 327.426 413.509, 328.743 410.251, 326.250 410.750 C 324.450 411.110, 324.678 406.880, 327.043 396.046 C 328.360 390.011, 328.742 386.342, 328.118 385.718 C 327.585 385.185, 325.584 385.043, 323.670 385.402 C 320.262 386.041, 320.176 386.179, 319.497 392.027 C 318.806 397.976, 318.790 398, 315.507 398 L 312.211 398 313.081 394.250 C 313.560 392.188, 313.963 389.262, 313.976 387.750 C 313.999 385.165, 313.744 385.005, 309.750 385.079 C 307.413 385.122, 304.954 385.379, 304.286 385.650 M 156.260 452.250 C 155.719 452.938, 154.953 454.845, 154.559 456.490 C 154.164 458.134, 153.315 459.822, 152.671 460.240 C 151.806 460.801, 151.866 461.236, 152.899 461.901 C 154.269 462.783, 154.085 467.830, 152.445 474.364 C 152.020 476.057, 152.346 476.919, 153.593 477.397 C 156.226 478.408, 157.085 476.875, 157.995 469.542 C 158.568 464.923, 159.395 462.417, 160.662 461.456 C 161.837 460.566, 162.029 460.052, 161.193 460.032 C 160.207 460.008, 160.305 459.293, 161.593 457.111 C 162.532 455.523, 163.021 453.498, 162.681 452.611 C 161.949 450.705, 157.667 450.464, 156.260 452.250 M 391.035 452.934 C 390.466 453.998, 390 455.650, 390 456.606 C 390 457.561, 389.255 459.165, 388.345 460.171 C 387.155 461.486, 387.055 462, 387.987 462 C 388.972 462, 389.138 463.406, 388.675 467.833 C 388.340 471.041, 387.800 474.358, 387.475 475.204 C 386.802 476.958, 389.830 478.570, 391.209 477.191 C 391.690 476.710, 392.565 473.221, 393.154 469.436 C 393.803 465.267, 394.871 462.065, 395.863 461.310 C 396.842 460.565, 397.016 460.051, 396.297 460.032 C 395.454 460.010, 395.580 459.151, 396.718 457.168 C 397.612 455.611, 398.055 453.586, 397.703 452.668 C 396.816 450.357, 392.318 450.537, 391.035 452.934 M 107.750 453.080 C 103.479 455.567, 101.041 466.934, 104.010 470.512 C 106.544 473.565, 108.761 474.127, 112.355 472.625 C 115.692 471.231, 117.661 469.327, 116.729 468.396 C 116.470 468.137, 115.089 468.458, 113.659 469.110 C 111.621 470.038, 110.728 470.020, 109.530 469.025 C 106.275 466.323, 108.820 454, 112.633 454 C 113.620 454, 114 454.558, 113.644 455.485 C 113.013 457.130, 116.427 459.472, 118.021 458.487 C 119.374 457.651, 119.249 454.649, 117.800 453.200 C 116.346 451.746, 110.168 451.672, 107.750 453.080 M 179.036 453.456 C 177.517 455.287, 178.510 457, 181.090 457 C 183.525 457, 184.798 454.119, 182.896 452.914 C 180.976 451.699, 180.431 451.776, 179.036 453.456 M 444.701 452.632 C 444.316 453.018, 444 454.190, 444 455.236 C 444 456.638, 444.593 457.055, 446.250 456.820 C 447.721 456.611, 448.500 455.812, 448.500 454.514 C 448.500 452.530, 446.028 451.306, 444.701 452.632 M 167.250 455.662 C 166.563 455.940, 166 456.992, 166 458 C 166 459.008, 165.438 460.062, 164.750 460.341 C 163.773 460.737, 163.791 461.052, 164.835 461.786 C 165.876 462.516, 165.940 463.558, 165.126 466.504 C 164.429 469.029, 164.413 470.903, 165.076 472.143 C 166.236 474.309, 166.119 474.286, 169.435 473.025 C 172.111 472.007, 172.951 470, 170.701 470 C 168.541 470, 169.855 462.851, 172.124 462.257 C 174.369 461.670, 174.633 460, 172.481 460 C 171.360 460, 171.126 459.345, 171.589 457.500 C 172.094 455.491, 171.852 455.016, 170.358 455.079 C 169.336 455.122, 167.938 455.385, 167.250 455.662 M 308.667 455.667 C 308.300 456.033, 308 457.158, 308 458.167 C 308 459.175, 307.663 460.001, 307.250 460.003 C 305.913 460.009, 305.954 472.987, 307.292 473.118 C 309.784 473.363, 311.545 472.796, 313 471.279 C 314.339 469.884, 314.312 469.782, 312.750 470.327 C 310.825 470.998, 310.630 470.099, 311.625 465.125 C 311.969 463.406, 312.869 462, 313.625 462 C 314.381 462, 315 461.550, 315 461 C 315 460.450, 314.550 460, 314 460 C 313.450 460, 313 458.875, 313 457.500 C 313 455.742, 312.456 455, 311.167 455 C 310.158 455, 309.033 455.300, 308.667 455.667 M 432.250 455.662 C 431.563 455.940, 431 456.992, 431 458 C 431 459.008, 430.438 460.062, 429.750 460.341 C 428.773 460.737, 428.791 461.052, 429.835 461.786 C 430.876 462.516, 430.940 463.558, 430.126 466.504 C 429.429 469.029, 429.413 470.903, 430.076 472.143 C 431.236 474.309, 431.119 474.286, 434.435 473.025 C 437.111 472.007, 437.951 470, 435.701 470 C 433.541 470, 434.855 462.851, 437.124 462.257 C 439.369 461.670, 439.633 460, 437.481 460 C 436.360 460, 436.126 459.345, 436.589 457.500 C 437.094 455.491, 436.852 455.016, 435.358 455.079 C 434.336 455.122, 432.938 455.385, 432.250 455.662 M 323.354 459.682 C 318.136 460.727, 315.352 468.352, 318.896 471.896 C 321.713 474.713, 322.637 474.567, 326.115 470.750 C 332.338 463.922, 333.150 462.621, 330.580 463.608 C 329.647 463.966, 329.046 463.358, 328.830 461.837 C 328.492 459.463, 327.128 458.927, 323.354 459.682 M 457.373 460.092 C 451.822 461.692, 450.268 470.467, 455.079 473.042 C 457.649 474.418, 461.630 472.105, 463.030 468.422 C 463.547 467.062, 464.652 465.687, 465.485 465.367 C 466.318 465.048, 467 464.398, 467 463.924 C 467 463.451, 466.434 463.280, 465.743 463.545 C 465.052 463.810, 464.039 463.038, 463.493 461.828 C 462.292 459.169, 461.426 458.923, 457.373 460.092 M 122.427 463.790 C 122.412 465.831, 122.077 468.738, 121.681 470.250 C 121.042 472.695, 121.232 473, 123.401 473 C 125.353 473, 125.972 472.350, 126.495 469.750 C 127.754 463.494, 128.087 462.828, 129.408 463.924 C 130.267 464.636, 131.009 464.591, 131.824 463.776 C 134.288 461.312, 133.043 460.207, 127.727 460.144 L 122.455 460.081 122.427 463.790 M 136.557 462.223 C 134.603 465.011, 134.542 470.399, 136.441 472.298 C 137.412 473.269, 139.430 473.623, 142.627 473.384 C 147.807 472.996, 150.378 471.469, 148.159 470.098 C 147.194 469.502, 147.024 468.022, 147.531 464.640 L 148.227 460 143.170 460 C 139.078 460, 137.816 460.424, 136.557 462.223 M 177.403 461.607 C 177.742 462.491, 177.531 465.028, 176.934 467.246 C 176.055 470.510, 176.126 471.555, 177.308 472.736 C 178.452 473.881, 179.222 473.951, 180.883 473.062 C 182.048 472.439, 183 471.469, 183 470.906 C 183 470.343, 182.484 470.201, 181.854 470.590 C 181.042 471.092, 180.911 470.492, 181.402 468.532 C 183.526 460.074, 183.514 460, 180.018 460 C 177.460 460, 176.915 460.335, 177.403 461.607 M 188.312 466.647 C 188.134 472.778, 188.240 473.106, 190.306 472.811 C 192.047 472.563, 192.662 471.540, 193.352 467.750 C 194.495 461.471, 196.260 461.557, 195.425 467.851 C 194.715 473.208, 195.731 474.395, 199.750 472.901 C 202.020 472.057, 202.882 470, 200.966 470 C 200.306 470, 200.166 468.231, 200.579 465.113 L 201.228 460.226 194.864 460.198 L 188.500 460.171 188.312 466.647 M 207.592 461.898 C 206.389 463.227, 205.969 465.097, 206.188 468.143 C 206.471 472.081, 206.777 472.538, 209.446 472.996 L 212.391 473.501 209.696 474.729 C 205.084 476.830, 206.674 480.801, 211.630 479.557 C 214.670 478.794, 217.482 472.935, 218.495 465.250 L 219.188 460 214.249 460 C 210.669 460, 208.838 460.522, 207.592 461.898 M 234.232 460.836 C 232.573 461.888, 230.853 467.963, 231.572 470.228 C 232.326 472.602, 235.249 474.082, 237.020 472.987 C 237.857 472.470, 238.929 472.526, 239.650 473.124 C 240.486 473.818, 241.747 473.668, 243.683 472.644 C 246.127 471.352, 246.264 471.062, 244.720 470.459 C 243.693 470.057, 243.133 469.074, 243.396 468.132 C 243.646 467.234, 244.145 465.038, 244.505 463.250 L 245.159 460 240.329 460.015 C 237.673 460.024, 234.929 460.393, 234.232 460.836 M 249.526 462.288 C 249.825 463.504, 249.442 467.801, 248.674 471.834 C 247.490 478.050, 247.486 479.249, 248.651 479.696 C 250.635 480.458, 253 478.136, 253 475.427 C 253 471.507, 255.110 463, 256.083 463 C 257.552 463, 257.140 468.355, 255.489 470.712 C 253.682 473.292, 255.053 474.577, 257.956 473.023 C 260.542 471.639, 262.004 468.843, 261.985 465.316 C 261.961 460.947, 260.934 460.213, 254.740 460.142 C 249.285 460.079, 249.010 460.192, 249.526 462.288 M 266.728 462.068 C 267.022 463.194, 266.689 467.474, 265.987 471.579 C 265.284 475.684, 264.966 479.299, 265.279 479.613 C 265.593 479.926, 266.783 479.886, 267.925 479.524 C 269.366 479.066, 270 478.020, 270 476.099 C 270 473.665, 270.377 473.333, 273.142 473.333 C 277.365 473.333, 279.165 470.679, 278.794 465 L 278.500 460.500 272.346 460.261 C 266.585 460.037, 266.227 460.152, 266.728 462.068 M 284.667 460.667 C 283.375 461.959, 284.027 464.244, 286.541 467.231 C 287.939 468.892, 288.805 470.528, 288.466 470.867 C 288.127 471.206, 287.410 470.697, 286.872 469.735 C 286.103 468.361, 285.476 468.210, 283.947 469.029 C 281.303 470.443, 281.501 471.860, 284.500 473 C 289.404 474.865, 294.639 470.855, 292.265 467.052 C 291.586 465.966, 291.549 464.770, 292.161 463.677 C 292.682 462.746, 292.832 461.538, 292.495 460.992 C 291.810 459.883, 285.704 459.629, 284.667 460.667 M 342.728 462.068 C 343.022 463.194, 342.689 467.474, 341.987 471.579 C 341.284 475.684, 340.966 479.299, 341.279 479.613 C 341.593 479.926, 342.783 479.886, 343.925 479.524 C 345.366 479.066, 346 478.020, 346 476.099 C 346 473.665, 346.377 473.333, 349.142 473.333 C 353.365 473.333, 355.165 470.679, 354.794 465 L 354.500 460.500 348.346 460.261 C 342.585 460.037, 342.227 460.152, 342.728 462.068 M 361.219 462.267 C 356.398 467.398, 360.140 475.418, 366.268 473.088 C 370.020 471.662, 370.766 469.831, 367.446 470.198 C 363.561 470.627, 363.461 468.773, 367.274 467 C 369.648 465.896, 370.500 464.840, 370.500 463 C 370.500 460.861, 369.989 460.457, 366.969 460.203 C 364.305 459.978, 362.893 460.485, 361.219 462.267 M 375.367 462.789 C 375.409 464.280, 375.098 467.188, 374.676 469.250 C 373.957 472.767, 374.061 473, 376.347 473 C 378.464 473, 378.897 472.380, 379.648 468.269 C 380.402 464.143, 380.829 463.536, 382.988 463.519 C 384.479 463.508, 385.592 462.845, 385.785 461.854 C 386.050 460.495, 385.162 460.197, 380.699 460.144 C 375.451 460.081, 375.293 460.159, 375.367 462.789 M 401.773 461.750 C 396.440 467.823, 399.896 475.327, 406.901 472.885 C 410.691 471.564, 410.959 470.055, 407.359 470.312 C 403.641 470.577, 403.291 468.392, 406.934 467.663 C 409.982 467.054, 411.978 463.392, 410.535 461.057 C 409.480 459.350, 403.462 459.826, 401.773 461.750 M 416.817 461.701 C 411.442 467.817, 414.862 475.339, 421.901 472.885 C 425.740 471.547, 425.942 470.059, 422.251 470.312 C 418.985 470.535, 418.215 468.034, 420.133 463.434 C 421.284 460.675, 421.380 460.634, 421.748 462.750 C 422.001 464.203, 422.848 465, 424.139 465 C 425.641 465, 426.060 464.440, 425.820 462.750 C 425.391 459.730, 419.185 459.008, 416.817 461.701 M 442.228 466.435 C 442.078 469.966, 442.382 473.118, 442.903 473.440 C 444.042 474.144, 449 472.029, 449 470.839 C 449 470.378, 448.508 470, 447.906 470 C 447.169 470, 447.036 468.372, 447.500 465 C 448.186 460.010, 448.182 460, 445.344 460.008 C 442.543 460.016, 442.496 460.113, 442.228 466.435 M 468.427 463.764 C 468.412 465.819, 468.077 468.738, 467.681 470.250 C 467.042 472.695, 467.232 473, 469.401 473 C 471.353 473, 471.972 472.350, 472.495 469.750 C 473.577 464.375, 474.091 463, 475.020 463 C 475.507 463, 475.646 465.189, 475.330 467.865 C 474.672 473.418, 475.628 474.582, 479.425 472.852 C 482.013 471.673, 482.907 470, 480.950 470 C 480.322 470, 480.020 468.092, 480.200 465.250 L 480.500 460.500 474.477 460.264 L 468.455 460.028 468.427 463.764 M 140.607 463.582 C 139.704 465.936, 139.873 470, 140.875 470 C 141.635 470, 143 465.422, 143 462.875 C 143 461.392, 141.249 461.909, 140.607 463.582 M 211.667 462.667 C 210.678 463.656, 210.858 470, 211.875 470 C 212.635 470, 214 465.422, 214 462.875 C 214 461.842, 212.615 461.718, 211.667 462.667 M 236.975 464.565 C 235.728 467.845, 235.738 469.720, 237.007 470.504 C 238.100 471.180, 238.527 470.238, 239.388 465.250 C 240.061 461.360, 238.376 460.881, 236.975 464.565 M 322.579 464.712 C 322.182 466.478, 322.276 468.671, 322.787 469.584 C 323.617 471.066, 323.887 470.999, 325.320 468.954 C 326.653 467.051, 326.696 466.482, 325.577 465.582 C 324.836 464.987, 324.021 463.825, 323.765 463 C 323.494 462.125, 322.999 462.839, 322.579 464.712 M 364.531 463.293 C 364.103 464.279, 364.034 465.367, 364.376 465.710 C 365.392 466.725, 366.211 465.299, 365.743 463.328 C 365.329 461.581, 365.275 461.580, 364.531 463.293 M 404.583 463.643 C 404.237 464.547, 404.159 465.492, 404.410 465.743 C 405.205 466.538, 407 464.942, 407 463.441 C 407 461.479, 405.361 461.617, 404.583 463.643 M 457.684 463.382 C 456.705 465.932, 456.840 469.783, 457.932 470.458 C 458.444 470.774, 459.552 470.050, 460.393 468.849 C 461.668 467.029, 461.699 466.484, 460.577 465.582 C 459.836 464.987, 459.036 463.848, 458.799 463.051 C 458.460 461.913, 458.220 461.984, 457.684 463.382 M 271.625 466.125 C 270.576 471.370, 270.768 472.438, 272.500 471 C 274.089 469.681, 274.611 463, 273.125 463 C 272.644 463, 271.969 464.406, 271.625 466.125 M 347.625 466.125 C 346.576 471.370, 346.768 472.438, 348.500 471 C 350.089 469.681, 350.611 463, 349.125 463 C 348.644 463, 347.969 464.406, 347.625 466.125" stroke="none" fill="#f4f0ef" fill-rule="evenodd"/><path d="M -0 291.002 L -0 582.003 291.750 581.752 L 583.500 581.500 583.752 290.750 L 584.003 0 292.002 0 L 0 0 -0 291.002 M 0.493 291.500 C 0.493 451.550, 0.609 516.876, 0.750 436.669 C 0.891 356.462, 0.891 225.512, 0.750 145.669 C 0.609 65.826, 0.493 131.450, 0.493 291.500 M 278.750 160.689 C 277.228 161.087, 277 162.474, 276.996 171.323 C 276.989 190.318, 273.044 207.156, 264.849 223.165 C 253.434 245.466, 233.916 265.293, 213.720 275.105 C 211.124 276.367, 209 277.772, 209 278.228 C 209 279.753, 215.230 291.435, 219.032 297.040 C 224.882 305.665, 224.761 305.628, 232.245 301.082 C 259.860 284.305, 297.199 280.301, 330.171 290.579 C 334.752 292.007, 343.522 295.795, 349.661 298.997 L 360.821 304.819 362.761 302.660 C 367.219 297.695, 374.662 284.989, 376.396 279.382 C 376.930 277.657, 376.444 277.014, 373.776 275.917 C 366.245 272.820, 350.199 260.910, 341.754 252.150 C 320.216 229.808, 309.012 202.343, 309.003 171.867 C 309 161.686, 308.904 161.208, 306.750 160.630 C 304.192 159.945, 281.415 159.993, 278.750 160.689 M 251.250 169.047 L 244 173.068 244 177.617 C 244 187.793, 238.447 203.794, 230.475 216.590 C 226.003 223.767, 213.650 236.420, 206.643 241 L 202.819 243.500 203.389 251.397 C 203.703 255.740, 204.182 259.515, 204.452 259.786 C 205.257 260.590, 215.626 253.929, 223.322 247.664 C 239.764 234.278, 251.607 215.533, 257.074 194.242 C 259.227 185.853, 260.890 164.991, 259.403 165.013 C 258.906 165.020, 255.238 166.836, 251.250 169.047 M 326.317 175.750 C 327.788 201.168, 337.004 221.852, 355 240.123 C 362.979 248.224, 378.378 260, 380.992 260 C 381.839 260, 383 252.477, 383 246.993 C 383 243.713, 382.490 242.930, 378.750 240.471 C 376.413 238.933, 371.200 234.486, 367.166 230.588 C 353.160 217.053, 343.896 198.008, 342.107 179.070 L 341.500 172.640 334.500 168.836 C 330.650 166.743, 327.094 165.024, 326.597 165.016 C 326.077 165.007, 325.958 169.559, 326.317 175.750 M 289.259 242.250 C 288.082 244.588, 285.955 248.391, 284.531 250.703 L 281.943 254.906 292.024 254.870 L 302.105 254.834 299.526 250.667 C 298.108 248.375, 295.970 244.588, 294.774 242.250 C 293.579 239.912, 292.331 238, 292 238 C 291.669 238, 290.436 239.912, 289.259 242.250 M 274.334 303.481 C 262.379 305.650, 250.540 310.052, 240.906 315.911 L 237.854 317.767 245.278 322.394 L 252.702 327.022 258.101 324.636 C 279.027 315.390, 306.775 315.323, 327.359 324.468 L 333.218 327.071 340.706 322.404 C 349.002 317.233, 349.068 317.762, 339.500 312.816 C 321.100 303.305, 295.508 299.639, 274.334 303.481 M 258.302 385.645 C 257.418 386.004, 257.381 386.742, 258.163 388.458 C 258.967 390.223, 258.702 393.281, 257.065 401.142 C 255.878 406.839, 254.745 412.288, 254.547 413.250 C 254.249 414.701, 254.921 415, 258.482 415 C 262.664 415, 262.794 414.901, 263.422 411.250 C 264.978 402.202, 267.501 392.441, 268.459 391.765 C 272.166 389.150, 272.897 392.597, 270.599 401.856 C 269.828 404.960, 268.908 409.188, 268.553 411.250 L 267.909 415 272.319 415 L 276.728 415 277.334 410.579 C 278.599 401.349, 281.224 391.851, 282.663 391.299 C 285.779 390.103, 286.094 392.599, 284.009 401.959 C 281.786 411.938, 281.990 414.545, 285.067 415.521 C 288.278 416.540, 294 414.167, 294 411.815 C 294 410.422, 293.530 409.967, 292.500 410.362 C 290.495 411.131, 290.576 409.553, 293.092 398.838 C 295.035 390.561, 295.069 389.754, 293.569 387.464 C 291.703 384.617, 288.322 384.265, 284.051 386.474 C 281.540 387.772, 281.056 387.772, 279.978 386.474 C 278.415 384.591, 274.691 384.591, 271.048 386.475 C 268.533 387.776, 268.128 387.776, 267.629 386.475 C 267.079 385.043, 261.093 384.510, 258.302 385.645 M 304.286 385.650 C 303.342 386.033, 303.338 386.568, 304.265 388.053 C 305.212 389.569, 305.075 391.774, 303.601 398.732 C 302.580 403.554, 301.412 409.188, 301.006 411.250 L 300.269 415 304.555 415 C 309.227 415, 308.898 415.505, 310.577 405.750 C 311.144 402.459, 311.567 402, 314.035 402 C 316.835 402, 316.847 402.028, 316.674 408.204 C 316.510 414.039, 316.654 414.464, 319.083 415.339 C 320.903 415.994, 322.529 415.855, 324.583 414.871 C 327.426 413.509, 328.743 410.251, 326.250 410.750 C 324.450 411.110, 324.678 406.880, 327.043 396.046 C 328.360 390.011, 328.742 386.342, 328.118 385.718 C 327.585 385.185, 325.584 385.043, 323.670 385.402 C 320.262 386.041, 320.176 386.179, 319.497 392.027 C 318.806 397.976, 318.790 398, 315.507 398 L 312.211 398 313.081 394.250 C 313.560 392.188, 313.963 389.262, 313.976 387.750 C 313.999 385.165, 313.744 385.005, 309.750 385.079 C 307.413 385.122, 304.954 385.379, 304.286 385.650 M 156.260 452.250 C 155.719 452.938, 154.953 454.845, 154.559 456.490 C 154.164 458.134, 153.315 459.822, 152.671 460.240 C 151.806 460.801, 151.866 461.236, 152.899 461.901 C 154.269 462.783, 154.085 467.830, 152.445 474.364 C 152.020 476.057, 152.346 476.919, 153.593 477.397 C 156.226 478.408, 157.085 476.875, 157.995 469.542 C 158.568 464.923, 159.395 462.417, 160.662 461.456 C 161.837 460.566, 162.029 460.052, 161.193 460.032 C 160.207 460.008, 160.305 459.293, 161.593 457.111 C 162.532 455.523, 163.021 453.498, 162.681 452.611 C 161.949 450.705, 157.667 450.464, 156.260 452.250 M 391.035 452.934 C 390.466 453.998, 390 455.650, 390 456.606 C 390 457.561, 389.255 459.165, 388.345 460.171 C 387.155 461.486, 387.055 462, 387.987 462 C 388.972 462, 389.138 463.406, 388.675 467.833 C 388.340 471.041, 387.800 474.358, 387.475 475.204 C 386.802 476.958, 389.830 478.570, 391.209 477.191 C 391.690 476.710, 392.565 473.221, 393.154 469.436 C 393.803 465.267, 394.871 462.065, 395.863 461.310 C 396.842 460.565, 397.016 460.051, 396.297 460.032 C 395.454 460.010, 395.580 459.151, 396.718 457.168 C 397.612 455.611, 398.055 453.586, 397.703 452.668 C 396.816 450.357, 392.318 450.537, 391.035 452.934 M 107.750 453.080 C 103.479 455.567, 101.041 466.934, 104.010 470.512 C 106.544 473.565, 108.761 474.127, 112.355 472.625 C 115.692 471.231, 117.661 469.327, 116.729 468.396 C 116.470 468.137, 115.089 468.458, 113.659 469.110 C 111.621 470.038, 110.728 470.020, 109.530 469.025 C 106.275 466.323, 108.820 454, 112.633 454 C 113.620 454, 114 454.558, 113.644 455.485 C 113.013 457.130, 116.427 459.472, 118.021 458.487 C 119.374 457.651, 119.249 454.649, 117.800 453.200 C 116.346 451.746, 110.168 451.672, 107.750 453.080 M 179.036 453.456 C 177.517 455.287, 178.510 457, 181.090 457 C 183.525 457, 184.798 454.119, 182.896 452.914 C 180.976 451.699, 180.431 451.776, 179.036 453.456 M 444.701 452.632 C 444.316 453.018, 444 454.190, 444 455.236 C 444 456.638, 444.593 457.055, 446.250 456.820 C 447.721 456.611, 448.500 455.812, 448.500 454.514 C 448.500 452.530, 446.028 451.306, 444.701 452.632 M 167.250 455.662 C 166.563 455.940, 166 456.992, 166 458 C 166 459.008, 165.438 460.062, 164.750 460.341 C 163.773 460.737, 163.791 461.052, 164.835 461.786 C 165.876 462.516, 165.940 463.558, 165.126 466.504 C 164.429 469.029, 164.413 470.903, 165.076 472.143 C 166.236 474.309, 166.119 474.286, 169.435 473.025 C 172.111 472.007, 172.951 470, 170.701 470 C 168.541 470, 169.855 462.851, 172.124 462.257 C 174.369 461.670, 174.633 460, 172.481 460 C 171.360 460, 171.126 459.345, 171.589 457.500 C 172.094 455.491, 171.852 455.016, 170.358 455.079 C 169.336 455.122, 167.938 455.385, 167.250 455.662 M 308.667 455.667 C 308.300 456.033, 308 457.158, 308 458.167 C 308 459.175, 307.663 460.001, 307.250 460.003 C 305.913 460.009, 305.954 472.987, 307.292 473.118 C 309.784 473.363, 311.545 472.796, 313 471.279 C 314.339 469.884, 314.312 469.782, 312.750 470.327 C 310.825 470.998, 310.630 470.099, 311.625 465.125 C 311.969 463.406, 312.869 462, 313.625 462 C 314.381 462, 315 461.550, 315 461 C 315 460.450, 314.550 460, 314 460 C 313.450 460, 313 458.875, 313 457.500 C 313 455.742, 312.456 455, 311.167 455 C 310.158 455, 309.033 455.300, 308.667 455.667 M 432.250 455.662 C 431.563 455.940, 431 456.992, 431 458 C 431 459.008, 430.438 460.062, 429.750 460.341 C 428.773 460.737, 428.791 461.052, 429.835 461.786 C 430.876 462.516, 430.940 463.558, 430.126 466.504 C 429.429 469.029, 429.413 470.903, 430.076 472.143 C 431.236 474.309, 431.119 474.286, 434.435 473.025 C 437.111 472.007, 437.951 470, 435.701 470 C 433.541 470, 434.855 462.851, 437.124 462.257 C 439.369 461.670, 439.633 460, 437.481 460 C 436.360 460, 436.126 459.345, 436.589 457.500 C 437.094 455.491, 436.852 455.016, 435.358 455.079 C 434.336 455.122, 432.938 455.385, 432.250 455.662 M 323.354 459.682 C 318.136 460.727, 315.352 468.352, 318.896 471.896 C 321.713 474.713, 322.637 474.567, 326.115 470.750 C 332.338 463.922, 333.150 462.621, 330.580 463.608 C 329.647 463.966, 329.046 463.358, 328.830 461.837 C 328.492 459.463, 327.128 458.927, 323.354 459.682 M 457.373 460.092 C 451.822 461.692, 450.268 470.467, 455.079 473.042 C 457.649 474.418, 461.630 472.105, 463.030 468.422 C 463.547 467.062, 464.652 465.687, 465.485 465.367 C 466.318 465.048, 467 464.398, 467 463.924 C 467 463.451, 466.434 463.280, 465.743 463.545 C 465.052 463.810, 464.039 463.038, 463.493 461.828 C 462.292 459.169, 461.426 458.923, 457.373 460.092 M 122.427 463.790 C 122.412 465.831, 122.077 468.738, 121.681 470.250 C 121.042 472.695, 121.232 473, 123.401 473 C 125.353 473, 125.972 472.350, 126.495 469.750 C 127.754 463.494, 128.087 462.828, 129.408 463.924 C 130.267 464.636, 131.009 464.591, 131.824 463.776 C 134.288 461.312, 133.043 460.207, 127.727 460.144 L 122.455 460.081 122.427 463.790 M 136.557 462.223 C 134.603 465.011, 134.542 470.399, 136.441 472.298 C 137.412 473.269, 139.430 473.623, 142.627 473.384 C 147.807 472.996, 150.378 471.469, 148.159 470.098 C 147.194 469.502, 147.024 468.022, 147.531 464.640 L 148.227 460 143.170 460 C 139.078 460, 137.816 460.424, 136.557 462.223 M 177.403 461.607 C 177.742 462.491, 177.531 465.028, 176.934 467.246 C 176.055 470.510, 176.126 471.555, 177.308 472.736 C 178.452 473.881, 179.222 473.951, 180.883 473.062 C 182.048 472.439, 183 471.469, 183 470.906 C 183 470.343, 182.484 470.201, 181.854 470.590 C 181.042 471.092, 180.911 470.492, 181.402 468.532 C 183.526 460.074, 183.514 460, 180.018 460 C 177.460 460, 176.915 460.335, 177.403 461.607 M 188.312 466.647 C 188.134 472.778, 188.240 473.106, 190.306 472.811 C 192.047 472.563, 192.662 471.540, 193.352 467.750 C 194.495 461.471, 196.260 461.557, 195.425 467.851 C 194.715 473.208, 195.731 474.395, 199.750 472.901 C 202.020 472.057, 202.882 470, 200.966 470 C 200.306 470, 200.166 468.231, 200.579 465.113 L 201.228 460.226 194.864 460.198 L 188.500 460.171 188.312 466.647 M 207.592 461.898 C 206.389 463.227, 205.969 465.097, 206.188 468.143 C 206.471 472.081, 206.777 472.538, 209.446 472.996 L 212.391 473.501 209.696 474.729 C 205.084 476.830, 206.674 480.801, 211.630 479.557 C 214.670 478.794, 217.482 472.935, 218.495 465.250 L 219.188 460 214.249 460 C 210.669 460, 208.838 460.522, 207.592 461.898 M 234.232 460.836 C 232.573 461.888, 230.853 467.963, 231.572 470.228 C 232.326 472.602, 235.249 474.082, 237.020 472.987 C 237.857 472.470, 238.929 472.526, 239.650 473.124 C 240.486 473.818, 241.747 473.668, 243.683 472.644 C 246.127 471.352, 246.264 471.062, 244.720 470.459 C 243.693 470.057, 243.133 469.074, 243.396 468.132 C 243.646 467.234, 244.145 465.038, 244.505 463.250 L 245.159 460 240.329 460.015 C 237.673 460.024, 234.929 460.393, 234.232 460.836 M 249.526 462.288 C 249.825 463.504, 249.442 467.801, 248.674 471.834 C 247.490 478.050, 247.486 479.249, 248.651 479.696 C 250.635 480.458, 253 478.136, 253 475.427 C 253 471.507, 255.110 463, 256.083 463 C 257.552 463, 257.140 468.355, 255.489 470.712 C 253.682 473.292, 255.053 474.577, 257.956 473.023 C 260.542 471.639, 262.004 468.843, 261.985 465.316 C 261.961 460.947, 260.934 460.213, 254.740 460.142 C 249.285 460.079, 249.010 460.192, 249.526 462.288 M 266.728 462.068 C 267.022 463.194, 266.689 467.474, 265.987 471.579 C 265.284 475.684, 264.966 479.299, 265.279 479.613 C 265.593 479.926, 266.783 479.886, 267.925 479.524 C 269.366 479.066, 270 478.020, 270 476.099 C 270 473.665, 270.377 473.333, 273.142 473.333 C 277.365 473.333, 279.165 470.679, 278.794 465 L 278.500 460.500 272.346 460.261 C 266.585 460.037, 266.227 460.152, 266.728 462.068 M 284.667 460.667 C 283.375 461.959, 284.027 464.244, 286.541 467.231 C 287.939 468.892, 288.805 470.528, 288.466 470.867 C 288.127 471.206, 287.410 470.697, 286.872 469.735 C 286.103 468.361, 285.476 468.210, 283.947 469.029 C 281.303 470.443, 281.501 471.860, 284.500 473 C 289.404 474.865, 294.639 470.855, 292.265 467.052 C 291.586 465.966, 291.549 464.770, 292.161 463.677 C 292.682 462.746, 292.832 461.538, 292.495 460.992 C 291.810 459.883, 285.704 459.629, 284.667 460.667 M 342.728 462.068 C 343.022 463.194, 342.689 467.474, 341.987 471.579 C 341.284 475.684, 340.966 479.299, 341.279 479.613 C 341.593 479.926, 342.783 479.886, 343.925 479.524 C 345.366 479.066, 346 478.020, 346 476.099 C 346 473.665, 346.377 473.333, 349.142 473.333 C 353.365 473.333, 355.165 470.679, 354.794 465 L 354.500 460.500 348.346 460.261 C 342.585 460.037, 342.227 460.152, 342.728 462.068 M 361.219 462.267 C 356.398 467.398, 360.140 475.418, 366.268 473.088 C 370.020 471.662, 370.766 469.831, 367.446 470.198 C 363.561 470.627, 363.461 468.773, 367.274 467 C 369.648 465.896, 370.500 464.840, 370.500 463 C 370.500 460.861, 369.989 460.457, 366.969 460.203 C 364.305 459.978, 362.893 460.485, 361.219 462.267 M 375.367 462.789 C 375.409 464.280, 375.098 467.188, 374.676 469.250 C 373.957 472.767, 374.061 473, 376.347 473 C 378.464 473, 378.897 472.380, 379.648 468.269 C 380.402 464.143, 380.829 463.536, 382.988 463.519 C 384.479 463.508, 385.592 462.845, 385.785 461.854 C 386.050 460.495, 385.162 460.197, 380.699 460.144 C 375.451 460.081, 375.293 460.159, 375.367 462.789 M 401.773 461.750 C 396.440 467.823, 399.896 475.327, 406.901 472.885 C 410.691 471.564, 410.959 470.055, 407.359 470.312 C 403.641 470.577, 403.291 468.392, 406.934 467.663 C 409.982 467.054, 411.978 463.392, 410.535 461.057 C 409.480 459.350, 403.462 459.826, 401.773 461.750 M 416.817 461.701 C 411.442 467.817, 414.862 475.339, 421.901 472.885 C 425.740 471.547, 425.942 470.059, 422.251 470.312 C 418.985 470.535, 418.215 468.034, 420.133 463.434 C 421.284 460.675, 421.380 460.634, 421.748 462.750 C 422.001 464.203, 422.848 465, 424.139 465 C 425.641 465, 426.060 464.440, 425.820 462.750 C 425.391 459.730, 419.185 459.008, 416.817 461.701 M 442.228 466.435 C 442.078 469.966, 442.382 473.118, 442.903 473.440 C 444.042 474.144, 449 472.029, 449 470.839 C 449 470.378, 448.508 470, 447.906 470 C 447.169 470, 447.036 468.372, 447.500 465 C 448.186 460.010, 448.182 460, 445.344 460.008 C 442.543 460.016, 442.496 460.113, 442.228 466.435 M 468.427 463.764 C 468.412 465.819, 468.077 468.738, 467.681 470.250 C 467.042 472.695, 467.232 473, 469.401 473 C 471.353 473, 471.972 472.350, 472.495 469.750 C 473.577 464.375, 474.091 463, 475.020 463 C 475.507 463, 475.646 465.189, 475.330 467.865 C 474.672 473.418, 475.628 474.582, 479.425 472.852 C 482.013 471.673, 482.907 470, 480.950 470 C 480.322 470, 480.020 468.092, 480.200 465.250 L 480.500 460.500 474.477 460.264 L 468.455 460.028 468.427 463.764 M 140.607 463.582 C 139.704 465.936, 139.873 470, 140.875 470 C 141.635 470, 143 465.422, 143 462.875 C 143 461.392, 141.249 461.909, 140.607 463.582 M 211.667 462.667 C 210.678 463.656, 210.858 470, 211.875 470 C 212.635 470, 214 465.422, 214 462.875 C 214 461.842, 212.615 461.718, 211.667 462.667 M 236.975 464.565 C 235.728 467.845, 235.738 469.720, 237.007 470.504 C 238.100 471.180, 238.527 470.238, 239.388 465.250 C 240.061 461.360, 238.376 460.881, 236.975 464.565 M 322.579 464.712 C 322.182 466.478, 322.276 468.671, 322.787 469.584 C 323.617 471.066, 323.887 470.999, 325.320 468.954 C 326.653 467.051, 326.696 466.482, 325.577 465.582 C 324.836 464.987, 324.021 463.825, 323.765 463 C 323.494 462.125, 322.999 462.839, 322.579 464.712 M 364.531 463.293 C 364.103 464.279, 364.034 465.367, 364.376 465.710 C 365.392 466.725, 366.211 465.299, 365.743 463.328 C 365.329 461.581, 365.275 461.580, 364.531 463.293 M 404.583 463.643 C 404.237 464.547, 404.159 465.492, 404.410 465.743 C 405.205 466.538, 407 464.942, 407 463.441 C 407 461.479, 405.361 461.617, 404.583 463.643 M 457.684 463.382 C 456.705 465.932, 456.840 469.783, 457.932 470.458 C 458.444 470.774, 459.552 470.050, 460.393 468.849 C 461.668 467.029, 461.699 466.484, 460.577 465.582 C 459.836 464.987, 459.036 463.848, 458.799 463.051 C 458.460 461.913, 458.220 461.984, 457.684 463.382 M 271.625 466.125 C 270.576 471.370, 270.768 472.438, 272.500 471 C 274.089 469.681, 274.611 463, 273.125 463 C 272.644 463, 271.969 464.406, 271.625 466.125 M 347.625 466.125 C 346.576 471.370, 346.768 472.438, 348.500 471 C 350.089 469.681, 350.611 463, 349.125 463 C 348.644 463, 347.969 464.406, 347.625 466.125" stroke="none" fill="#bc0c0c" fill-rule="evenodd"/></svg>