<svg xmlns="http://www.w3.org/2000/svg" width="586" height="582" viewBox="0 0 586 582" version="1.1"><path d="M 278.788 161.682 C 277.320 162.068, 277.076 163.515, 277.078 171.816 C 277.086 197.692, 269.343 221.148, 253.982 241.782 C 243.616 255.707, 227.595 269.364, 213.720 276.105 C 211.124 277.367, 209 278.772, 209 279.228 C 209 280.753, 215.230 292.435, 219.032 298.040 C 224.882 306.665, 224.761 306.628, 232.245 302.082 C 259.860 285.305, 297.199 281.301, 330.171 291.579 C 334.752 293.007, 343.522 296.795, 349.661 299.997 L 360.821 305.819 362.761 303.660 C 367.558 298.318, 378.119 279.573, 376.867 278.622 C 376.665 278.469, 373.414 276.673, 369.642 274.631 C 354.235 266.291, 337.456 250.951, 328.355 236.882 C 315.754 217.403, 310.098 199.609, 309.268 176.832 C 308.763 162.964, 308.618 162.133, 306.617 161.595 C 304.173 160.939, 281.342 161.011, 278.788 161.682 M 251.250 170.047 L 244 174.068 244 178.617 C 244 188.793, 238.447 204.794, 230.475 217.590 C 226.075 224.652, 213.831 237.245, 206.741 242 C 203.820 243.959, 203.014 245.149, 203.016 247.500 C 203.019 252.689, 204.247 261, 205.011 261 C 207.134 261, 221.987 250.078, 229.083 243.299 C 242.555 230.427, 252.369 213.565, 257.091 195.175 C 259.231 186.838, 260.884 165.992, 259.403 166.013 C 258.906 166.020, 255.238 167.836, 251.250 170.047 M 326.317 176.750 C 327.802 202.413, 338.520 225.722, 356.917 243.299 C 364.013 250.078, 378.866 261, 380.989 261 C 381.753 261, 382.981 252.689, 382.984 247.500 C 382.986 245.151, 382.179 243.957, 379.267 242 C 372.998 237.787, 360.957 225.823, 356.745 219.622 C 348.775 207.889, 343.351 193.234, 342.107 180.070 L 341.500 173.640 334.500 169.836 C 330.650 167.743, 327.094 166.024, 326.597 166.016 C 326.077 166.007, 325.958 170.559, 326.317 176.750 M 286.905 247.288 L 282.309 255.500 287.155 255.802 C 289.820 255.969, 294.223 255.969, 296.940 255.802 L 301.880 255.500 297.190 247.258 C 294.610 242.726, 292.275 239.030, 292 239.047 C 291.725 239.063, 289.432 242.772, 286.905 247.288 M 274.334 304.481 C 262.379 306.650, 250.540 311.052, 240.906 316.911 L 237.854 318.767 245.278 323.394 L 252.702 328.022 258.101 325.636 C 278.971 316.415, 306.781 316.325, 327.232 325.412 L 332.963 327.959 338.732 324.552 C 349.146 318.401, 349.011 318.967, 341.096 314.692 C 322.162 304.465, 296.257 300.503, 274.334 304.481 M 258.744 386.589 C 258.420 386.913, 258.378 388.601, 258.652 390.339 C 258.925 392.078, 258.215 397.658, 257.074 402.739 C 254.146 415.781, 254.177 416, 258.955 416 C 262.744 416, 262.936 415.843, 263.552 412.250 C 265.424 401.335, 267.646 393.624, 269.202 392.643 C 272.016 390.870, 272.464 392.693, 271.080 400.281 C 270.356 404.252, 269.438 409.413, 269.040 411.750 L 268.317 416 272.531 416 C 276.721 416, 276.748 415.976, 277.385 411.750 C 279.059 400.658, 281.380 393.014, 283.256 392.419 C 284.298 392.088, 285.406 392.072, 285.717 392.384 C 286.029 392.696, 285.368 397.258, 284.248 402.522 C 281.978 413.194, 282.202 415.762, 285.477 416.584 C 288.814 417.421, 295.134 414.514, 294.361 412.498 C 294.020 411.611, 293.125 411.122, 292.371 411.411 C 290.613 412.086, 290.597 412.303, 293.155 400.261 C 295.260 390.349, 295.271 389.957, 293.510 388.011 C 291.356 385.630, 287.985 385.439, 284.051 387.474 C 281.540 388.772, 281.056 388.772, 279.978 387.474 C 278.415 385.591, 274.691 385.591, 271.048 387.475 C 268.533 388.776, 268.128 388.776, 267.629 387.475 C 267.070 386.018, 260.018 385.315, 258.744 386.589 M 304.770 386.563 C 304.461 386.873, 304.429 388.785, 304.701 390.813 C 304.975 392.859, 304.262 398.429, 303.098 403.329 C 300.149 415.740, 300.187 416, 304.933 416 C 309.265 416, 309.425 415.764, 310.557 407.750 C 311.198 403.208, 311.368 403, 314.440 403 L 317.654 403 316.661 407.846 C 316.115 410.512, 315.948 413.423, 316.291 414.316 C 317.771 418.173, 327.031 416.794, 327.839 412.596 C 328.107 411.208, 327.779 410.871, 326.601 411.323 C 324.427 412.157, 324.527 408.785, 327 398 C 329.539 386.923, 329.520 385.997, 326.750 386.014 C 321.853 386.043, 320 387.135, 320 389.992 C 320 391.509, 319.719 394.156, 319.375 395.875 C 318.847 398.514, 318.298 399, 315.847 399 L 312.944 399 313.610 392.500 L 314.276 386 309.805 386 C 307.345 386, 305.080 386.253, 304.770 386.563 M 156.035 453.934 C 155.466 454.998, 155 457.023, 155 458.434 C 155 459.845, 154.662 461, 154.250 461 C 153.838 461, 153.500 463.362, 153.500 466.250 C 153.500 469.137, 153.182 472.922, 152.793 474.660 C 152.248 477.096, 152.458 477.962, 153.710 478.442 C 156.181 479.390, 156.986 477.939, 158.154 470.436 C 158.803 466.267, 159.871 463.065, 160.863 462.310 C 161.842 461.565, 162.016 461.051, 161.297 461.032 C 160.454 461.010, 160.580 460.151, 161.718 458.168 C 162.612 456.611, 163.055 454.586, 162.703 453.668 C 161.816 451.357, 157.318 451.537, 156.035 453.934 M 391.035 453.934 C 390.466 454.998, 390 456.986, 390 458.351 C 390 459.716, 389.438 461.062, 388.750 461.341 C 387.809 461.722, 387.788 462.054, 388.668 462.682 C 389.557 463.318, 389.543 465.243, 388.607 470.751 C 387.453 477.549, 387.492 478.021, 389.265 478.584 C 390.302 478.913, 391.392 478.942, 391.686 478.647 C 391.980 478.353, 392.711 474.712, 393.310 470.556 C 394.027 465.578, 394.842 463, 395.699 463 C 396.415 463, 397 462.550, 397 462 C 397 461.450, 396.524 461, 395.943 461 C 395.351 461, 395.571 460.023, 396.443 458.777 C 397.299 457.555, 398 455.530, 398 454.277 C 398 452.420, 397.454 452, 395.035 452 C 393.127 452, 391.701 452.690, 391.035 453.934 M 107.127 455.096 C 104.192 457.831, 103 461.122, 103 466.493 C 103 474.168, 110.045 477.266, 115.444 471.965 C 117.851 469.602, 116.941 468.395, 114.094 470.173 C 109.263 473.190, 106.323 465.949, 109.394 458.598 C 110.981 454.800, 114 453.682, 114 456.893 C 114 458.860, 116.506 460.423, 118.090 459.444 C 119.384 458.645, 119.216 455.616, 117.800 454.200 C 115.835 452.235, 109.641 452.755, 107.127 455.096 M 179.701 453.632 C 179.316 454.018, 179 455.190, 179 456.236 C 179 457.638, 179.593 458.055, 181.250 457.820 C 182.721 457.611, 183.500 456.812, 183.500 455.514 C 183.500 453.530, 181.028 452.306, 179.701 453.632 M 445.250 453.667 C 444.563 453.942, 444 455.060, 444 456.153 C 444 457.641, 444.565 458.059, 446.250 457.820 C 447.690 457.615, 448.500 456.810, 448.500 455.583 C 448.500 453.549, 447.305 452.845, 445.250 453.667 M 167.667 456.667 C 167.300 457.033, 167 458.158, 167 459.167 C 167 460.175, 166.645 461, 166.211 461 C 165.777 461, 165.439 464.038, 165.461 467.750 C 165.499 474.334, 165.561 474.493, 167.979 474.221 C 170.969 473.885, 173.105 471.972, 171.250 471.292 C 168.839 470.408, 170.051 463, 172.607 463 C 173.373 463, 174 462.550, 174 462 C 174 461.450, 173.387 461, 172.639 461 C 171.726 461, 171.435 460.176, 171.755 458.500 C 172.133 456.525, 171.824 456, 170.283 456 C 169.211 456, 168.033 456.300, 167.667 456.667 M 308.667 456.667 C 308.300 457.033, 308 458.121, 308 459.083 C 308 460.046, 307.438 461.096, 306.750 461.417 C 305.869 461.828, 305.831 462.160, 306.620 462.540 C 307.419 462.925, 307.460 464.393, 306.766 467.650 C 305.511 473.533, 307.166 475.793, 311.338 473.892 C 314.179 472.597, 315.111 470.360, 312.371 471.411 C 311.008 471.934, 310.845 471.524, 311.371 468.893 C 311.717 467.164, 312 465.184, 312 464.492 C 312 463.800, 313.012 462.908, 314.250 462.511 C 316.156 461.899, 316.232 461.716, 314.750 461.321 C 313.692 461.038, 313 459.893, 313 458.427 C 313 456.740, 312.441 456, 311.167 456 C 310.158 456, 309.033 456.300, 308.667 456.667 M 432.667 456.667 C 432.300 457.033, 432 458.158, 432 459.167 C 432 460.175, 431.645 461, 431.211 461 C 430.777 461, 430.439 464.038, 430.461 467.750 C 430.499 474.334, 430.561 474.493, 432.979 474.221 C 435.969 473.885, 438.105 471.972, 436.250 471.292 C 433.839 470.408, 435.051 463, 437.607 463 C 438.373 463, 439 462.550, 439 462 C 439 461.450, 438.387 461, 437.639 461 C 436.726 461, 436.435 460.176, 436.755 458.500 C 437.133 456.525, 436.824 456, 435.283 456 C 434.211 456, 433.033 456.300, 432.667 456.667 M 323.500 460.709 C 319.705 461.653, 318 464.105, 318 468.620 C 318 471.780, 318.490 473.192, 319.838 473.913 C 322.852 475.527, 325.959 474, 328.066 469.872 C 329.152 467.742, 330.733 466, 331.579 466 C 332.426 466, 332.852 465.570, 332.527 465.044 C 332.202 464.518, 331.311 464.327, 330.548 464.620 C 329.652 464.964, 329.042 464.331, 328.830 462.837 C 328.490 460.449, 326.975 459.844, 323.500 460.709 M 458.354 460.682 C 453.046 461.745, 450.394 470.622, 454.491 473.617 C 457.170 475.576, 457.788 475.401, 461.115 471.750 C 467.338 464.922, 468.150 463.621, 465.580 464.608 C 464.647 464.966, 464.046 464.358, 463.830 462.837 C 463.492 460.463, 462.128 459.927, 458.354 460.682 M 122.263 467.550 C 122.033 473.818, 122.096 474, 124.513 474 C 126.638 474, 127.010 473.527, 127.070 470.750 C 127.165 466.361, 128.411 463.237, 129.417 464.865 C 130.001 465.810, 130.507 465.825, 131.589 464.926 C 134.487 462.521, 133.150 461.208, 127.750 461.153 L 122.500 461.100 122.263 467.550 M 137.033 462.461 C 136.366 463.264, 135.587 465.659, 135.302 467.782 C 134.584 473.139, 136.476 474.844, 142.627 474.384 C 147.431 474.024, 150.728 472.200, 148.228 471.284 C 147.308 470.947, 147.136 469.459, 147.606 465.909 L 148.258 461 143.251 461 C 140.081 461, 137.800 461.536, 137.033 462.461 M 177.489 462.966 C 177.832 464.047, 177.645 466.626, 177.073 468.697 C 175.696 473.684, 177.356 475.706, 181.338 473.892 C 184.211 472.583, 184.885 471, 182.570 471 C 181.432 471, 181.330 470.336, 182.070 467.757 C 183.684 462.130, 183.326 461, 179.933 461 C 177.338 461, 176.961 461.303, 177.489 462.966 M 188.315 467.585 C 188.140 473.670, 188.249 474, 190.436 474 C 192.448 474, 192.827 473.363, 193.406 469 C 193.770 466.250, 194.546 464, 195.128 464 C 195.821 464, 195.956 465.685, 195.519 468.864 C 194.781 474.231, 195.752 475.387, 199.750 473.901 C 201.970 473.076, 202.898 471, 201.047 471 C 200.494 471, 200.337 468.948, 200.673 466.113 L 201.252 461.226 194.876 461.198 L 188.500 461.171 188.315 467.585 M 207.458 463.424 C 206.506 464.877, 205.996 467.377, 206.185 469.669 C 206.461 473.023, 206.861 473.553, 209.446 473.996 L 212.391 474.501 209.696 475.729 C 206.726 477.082, 206.120 479.725, 208.564 480.663 C 213.270 482.469, 217.439 476.629, 218.620 466.574 L 219.275 461 214.161 461 C 209.852 461, 208.796 461.382, 207.458 463.424 M 233.655 462.829 C 231.331 465.397, 231.428 472.624, 233.804 473.895 C 234.855 474.458, 236.197 474.496, 237.020 473.987 C 237.849 473.475, 238.917 473.516, 239.605 474.087 C 240.372 474.724, 241.677 474.649, 243.388 473.869 C 246.059 472.652, 246.907 471, 244.861 471 C 244.081 471, 243.908 469.421, 244.314 466 L 244.906 461 240.108 461 C 236.730 461, 234.820 461.541, 233.655 462.829 M 249.501 463.002 C 249.848 464.096, 249.566 468.357, 248.875 472.471 C 248.184 476.585, 247.895 480.228, 248.234 480.567 C 248.572 480.906, 249.723 480.905, 250.790 480.567 C 252.292 480.090, 252.881 478.666, 253.398 474.267 C 254.274 466.817, 255.018 464, 256.108 464 C 257.629 464, 257.087 470.683, 255.458 472.035 C 254.390 472.921, 254.235 473.635, 254.955 474.355 C 255.674 475.074, 256.842 474.762, 258.747 473.339 C 261.096 471.586, 261.500 470.566, 261.500 466.392 L 261.500 461.500 255.185 461.256 C 249.285 461.029, 248.911 461.144, 249.501 463.002 M 266.479 466.303 C 266.468 469.162, 266.074 473.676, 265.603 476.336 C 264.768 481.052, 264.806 481.164, 267.124 480.836 C 268.995 480.571, 269.567 479.800, 269.817 477.204 C 270.078 474.484, 270.465 474.013, 272.029 474.509 C 276.552 475.945, 281.037 468.858, 278.998 463.496 C 278.211 461.426, 277.455 461.159, 272.306 461.134 L 266.500 461.107 266.479 466.303 M 284.667 461.667 C 283.483 462.850, 283.957 465.720, 285.555 467.045 C 286.410 467.755, 287.600 469.273, 288.200 470.418 C 289.232 472.387, 289.188 472.412, 287.396 470.880 C 286.353 469.990, 284.938 469.465, 284.250 469.714 C 282.166 470.469, 282.847 472.973, 285.459 474.163 C 287.428 475.061, 288.424 474.952, 290.459 473.619 C 293.049 471.922, 293.845 468.640, 291.951 467.470 C 291.233 467.026, 291.269 466.381, 292.063 465.424 C 293.988 463.105, 292.387 461, 288.698 461 C 286.847 461, 285.033 461.300, 284.667 461.667 M 342.479 466.303 C 342.468 469.162, 342.074 473.676, 341.603 476.336 C 340.768 481.052, 340.806 481.164, 343.124 480.836 C 344.995 480.571, 345.567 479.800, 345.817 477.204 C 346.078 474.484, 346.465 474.013, 348.029 474.509 C 352.552 475.945, 357.037 468.858, 354.998 463.496 C 354.211 461.426, 353.455 461.159, 348.306 461.134 L 342.500 461.107 342.479 466.303 M 361.115 463.581 C 356.698 469.196, 360.224 476.386, 366.268 474.088 C 370.020 472.662, 370.766 470.831, 367.446 471.198 C 365.914 471.367, 364.517 470.950, 364.272 470.250 C 364.019 469.531, 364.652 469, 365.762 469 C 368.277 469, 371.270 465.648, 370.829 463.324 C 370.584 462.031, 369.427 461.412, 366.856 461.196 C 363.911 460.950, 362.832 461.398, 361.115 463.581 M 375.427 464.790 C 375.412 466.831, 375.077 469.738, 374.681 471.250 C 374.042 473.695, 374.232 474, 376.401 474 C 378.353 474, 378.972 473.350, 379.495 470.750 C 380.754 464.494, 381.087 463.828, 382.408 464.924 C 383.267 465.636, 384.009 465.591, 384.824 464.776 C 387.288 462.312, 386.043 461.207, 380.727 461.144 L 375.455 461.081 375.427 464.790 M 401.699 462.780 C 400.677 463.910, 400 466.305, 400 468.794 C 400 473.984, 402.550 475.843, 407.091 473.962 C 410.649 472.488, 410.954 470.723, 407.500 471.589 C 403.789 472.521, 404.274 469.712, 408.072 468.279 C 410.640 467.310, 411.091 466.658, 410.822 464.310 C 410.544 461.887, 410.011 461.459, 406.949 461.201 C 404.468 460.993, 402.886 461.469, 401.699 462.780 M 416.699 462.780 C 415.677 463.910, 415 466.305, 415 468.794 C 415 473.984, 417.550 475.843, 422.091 473.962 C 425.576 472.519, 425.984 470.715, 422.636 471.555 C 419.795 472.268, 418.777 470.367, 419.652 465.989 C 420.266 462.918, 422 461.819, 422 464.500 C 422 465.350, 422.897 466, 424.070 466 C 425.644 466, 426.063 465.461, 425.820 463.750 C 425.383 460.676, 419.198 460.019, 416.699 462.780 M 442.500 467.755 C 442.500 474.343, 442.558 474.493, 444.979 474.221 C 447.987 473.883, 450.103 471.971, 448.228 471.284 C 447.308 470.947, 447.136 469.459, 447.606 465.909 C 448.256 461.016, 448.249 461, 445.379 461.005 L 442.500 461.009 442.500 467.755 M 468.263 467.524 C 468.051 473.325, 468.226 474, 469.946 474 C 471.880 474, 472.310 473.184, 473.505 467.250 C 474.552 462.049, 476.149 463.399, 475.423 468.872 C 474.684 474.437, 475.611 475.590, 479.425 473.852 C 481.978 472.689, 482.915 471, 481.008 471 C 480.456 471, 480.123 468.889, 480.258 466.250 L 480.500 461.500 474.500 461.274 L 468.500 461.048 468.263 467.524 M 140.607 464.582 C 139.700 466.945, 139.875 471, 140.883 471 C 141.828 471, 142.964 467.625, 142.986 464.750 C 143.003 462.568, 141.423 462.457, 140.607 464.582 M 211.667 463.667 C 210.668 464.666, 210.863 471, 211.893 471 C 213.049 471, 214 468.480, 214 465.418 C 214 463.062, 213.013 462.321, 211.667 463.667 M 237.667 463.667 C 237.300 464.033, 237 466.148, 237 468.367 C 237 473.186, 238.491 472.141, 239.307 466.750 C 239.837 463.247, 239.229 462.104, 237.667 463.667 M 364.345 464.543 C 363.535 466.653, 364.887 467.793, 366.039 465.971 C 367.263 464.035, 367.239 463, 365.969 463 C 365.401 463, 364.671 463.694, 364.345 464.543 M 404.695 465.057 C 404.353 466.366, 404.584 466.972, 405.329 466.724 C 406.767 466.245, 407.518 463, 406.190 463 C 405.664 463, 404.991 463.926, 404.695 465.057 M 457.579 465.712 C 457.182 467.478, 457.276 469.671, 457.787 470.584 C 458.617 472.066, 458.887 471.999, 460.320 469.954 C 461.653 468.051, 461.696 467.482, 460.577 466.582 C 459.836 465.987, 459.021 464.825, 458.765 464 C 458.494 463.125, 457.999 463.839, 457.579 465.712 M 271.601 468.095 C 270.862 472.715, 271.008 473.231, 272.747 472.157 C 274.305 471.193, 274.823 464.833, 273.384 464.320 C 272.736 464.089, 271.988 465.673, 271.601 468.095 M 322.777 466.386 C 322.225 469.273, 322.861 471, 324.476 471 C 326.697 471, 327.055 468.055, 325.075 466.075 C 323.236 464.236, 323.187 464.243, 322.777 466.386 M 347.601 468.095 C 346.862 472.715, 347.008 473.231, 348.747 472.157 C 350.305 471.193, 350.823 464.833, 349.384 464.320 C 348.736 464.089, 347.988 465.673, 347.601 468.095" stroke="none" fill="#e9e2e0" fill-rule="evenodd"/><path d="M -0 291.002 L -0 582.003 293.250 581.752 L 586.500 581.500 586.752 290.750 L 587.003 -0 293.502 -0 L 0 0 -0 291.002 M 0.493 291.500 C 0.493 451.550, 0.609 516.876, 0.750 436.669 C 0.891 356.462, 0.891 225.512, 0.750 145.669 C 0.609 65.826, 0.493 131.450, 0.493 291.500 M 278.788 161.682 C 277.320 162.068, 277.076 163.515, 277.078 171.816 C 277.086 197.692, 269.343 221.148, 253.982 241.782 C 243.616 255.707, 227.595 269.364, 213.720 276.105 C 211.124 277.367, 209 278.772, 209 279.228 C 209 280.753, 215.230 292.435, 219.032 298.040 C 224.882 306.665, 224.761 306.628, 232.245 302.082 C 259.860 285.305, 297.199 281.301, 330.171 291.579 C 334.752 293.007, 343.522 296.795, 349.661 299.997 L 360.821 305.819 362.761 303.660 C 367.558 298.318, 378.119 279.573, 376.867 278.622 C 376.665 278.469, 373.414 276.673, 369.642 274.631 C 354.235 266.291, 337.456 250.951, 328.355 236.882 C 315.754 217.403, 310.098 199.609, 309.268 176.832 C 308.763 162.964, 308.618 162.133, 306.617 161.595 C 304.173 160.939, 281.342 161.011, 278.788 161.682 M 251.250 170.047 L 244 174.068 244 178.617 C 244 188.793, 238.447 204.794, 230.475 217.590 C 226.075 224.652, 213.831 237.245, 206.741 242 C 203.820 243.959, 203.014 245.149, 203.016 247.500 C 203.019 252.689, 204.247 261, 205.011 261 C 207.134 261, 221.987 250.078, 229.083 243.299 C 242.555 230.427, 252.369 213.565, 257.091 195.175 C 259.231 186.838, 260.884 165.992, 259.403 166.013 C 258.906 166.020, 255.238 167.836, 251.250 170.047 M 326.317 176.750 C 327.802 202.413, 338.520 225.722, 356.917 243.299 C 364.013 250.078, 378.866 261, 380.989 261 C 381.753 261, 382.981 252.689, 382.984 247.500 C 382.986 245.151, 382.179 243.957, 379.267 242 C 372.998 237.787, 360.957 225.823, 356.745 219.622 C 348.775 207.889, 343.351 193.234, 342.107 180.070 L 341.500 173.640 334.500 169.836 C 330.650 167.743, 327.094 166.024, 326.597 166.016 C 326.077 166.007, 325.958 170.559, 326.317 176.750 M 286.905 247.288 L 282.309 255.500 287.155 255.802 C 289.820 255.969, 294.223 255.969, 296.940 255.802 L 301.880 255.500 297.190 247.258 C 294.610 242.726, 292.275 239.030, 292 239.047 C 291.725 239.063, 289.432 242.772, 286.905 247.288 M 274.334 304.481 C 262.379 306.650, 250.540 311.052, 240.906 316.911 L 237.854 318.767 245.278 323.394 L 252.702 328.022 258.101 325.636 C 278.971 316.415, 306.781 316.325, 327.232 325.412 L 332.963 327.959 338.732 324.552 C 349.146 318.401, 349.011 318.967, 341.096 314.692 C 322.162 304.465, 296.257 300.503, 274.334 304.481 M 258.744 386.589 C 258.420 386.913, 258.378 388.601, 258.652 390.339 C 258.925 392.078, 258.215 397.658, 257.074 402.739 C 254.146 415.781, 254.177 416, 258.955 416 C 262.744 416, 262.936 415.843, 263.552 412.250 C 265.424 401.335, 267.646 393.624, 269.202 392.643 C 272.016 390.870, 272.464 392.693, 271.080 400.281 C 270.356 404.252, 269.438 409.413, 269.040 411.750 L 268.317 416 272.531 416 C 276.721 416, 276.748 415.976, 277.385 411.750 C 279.059 400.658, 281.380 393.014, 283.256 392.419 C 284.298 392.088, 285.406 392.072, 285.717 392.384 C 286.029 392.696, 285.368 397.258, 284.248 402.522 C 281.978 413.194, 282.202 415.762, 285.477 416.584 C 288.814 417.421, 295.134 414.514, 294.361 412.498 C 294.020 411.611, 293.125 411.122, 292.371 411.411 C 290.613 412.086, 290.597 412.303, 293.155 400.261 C 295.260 390.349, 295.271 389.957, 293.510 388.011 C 291.356 385.630, 287.985 385.439, 284.051 387.474 C 281.540 388.772, 281.056 388.772, 279.978 387.474 C 278.415 385.591, 274.691 385.591, 271.048 387.475 C 268.533 388.776, 268.128 388.776, 267.629 387.475 C 267.070 386.018, 260.018 385.315, 258.744 386.589 M 304.770 386.563 C 304.461 386.873, 304.429 388.785, 304.701 390.813 C 304.975 392.859, 304.262 398.429, 303.098 403.329 C 300.149 415.740, 300.187 416, 304.933 416 C 309.265 416, 309.425 415.764, 310.557 407.750 C 311.198 403.208, 311.368 403, 314.440 403 L 317.654 403 316.661 407.846 C 316.115 410.512, 315.948 413.423, 316.291 414.316 C 317.771 418.173, 327.031 416.794, 327.839 412.596 C 328.107 411.208, 327.779 410.871, 326.601 411.323 C 324.427 412.157, 324.527 408.785, 327 398 C 329.539 386.923, 329.520 385.997, 326.750 386.014 C 321.853 386.043, 320 387.135, 320 389.992 C 320 391.509, 319.719 394.156, 319.375 395.875 C 318.847 398.514, 318.298 399, 315.847 399 L 312.944 399 313.610 392.500 L 314.276 386 309.805 386 C 307.345 386, 305.080 386.253, 304.770 386.563 M 156.035 453.934 C 155.466 454.998, 155 457.023, 155 458.434 C 155 459.845, 154.662 461, 154.250 461 C 153.838 461, 153.500 463.362, 153.500 466.250 C 153.500 469.137, 153.182 472.922, 152.793 474.660 C 152.248 477.096, 152.458 477.962, 153.710 478.442 C 156.181 479.390, 156.986 477.939, 158.154 470.436 C 158.803 466.267, 159.871 463.065, 160.863 462.310 C 161.842 461.565, 162.016 461.051, 161.297 461.032 C 160.454 461.010, 160.580 460.151, 161.718 458.168 C 162.612 456.611, 163.055 454.586, 162.703 453.668 C 161.816 451.357, 157.318 451.537, 156.035 453.934 M 391.035 453.934 C 390.466 454.998, 390 456.986, 390 458.351 C 390 459.716, 389.438 461.062, 388.750 461.341 C 387.809 461.722, 387.788 462.054, 388.668 462.682 C 389.557 463.318, 389.543 465.243, 388.607 470.751 C 387.453 477.549, 387.492 478.021, 389.265 478.584 C 390.302 478.913, 391.392 478.942, 391.686 478.647 C 391.980 478.353, 392.711 474.712, 393.310 470.556 C 394.027 465.578, 394.842 463, 395.699 463 C 396.415 463, 397 462.550, 397 462 C 397 461.450, 396.524 461, 395.943 461 C 395.351 461, 395.571 460.023, 396.443 458.777 C 397.299 457.555, 398 455.530, 398 454.277 C 398 452.420, 397.454 452, 395.035 452 C 393.127 452, 391.701 452.690, 391.035 453.934 M 107.127 455.096 C 104.192 457.831, 103 461.122, 103 466.493 C 103 474.168, 110.045 477.266, 115.444 471.965 C 117.851 469.602, 116.941 468.395, 114.094 470.173 C 109.263 473.190, 106.323 465.949, 109.394 458.598 C 110.981 454.800, 114 453.682, 114 456.893 C 114 458.860, 116.506 460.423, 118.090 459.444 C 119.384 458.645, 119.216 455.616, 117.800 454.200 C 115.835 452.235, 109.641 452.755, 107.127 455.096 M 179.701 453.632 C 179.316 454.018, 179 455.190, 179 456.236 C 179 457.638, 179.593 458.055, 181.250 457.820 C 182.721 457.611, 183.500 456.812, 183.500 455.514 C 183.500 453.530, 181.028 452.306, 179.701 453.632 M 445.250 453.667 C 444.563 453.942, 444 455.060, 444 456.153 C 444 457.641, 444.565 458.059, 446.250 457.820 C 447.690 457.615, 448.500 456.810, 448.500 455.583 C 448.500 453.549, 447.305 452.845, 445.250 453.667 M 167.667 456.667 C 167.300 457.033, 167 458.158, 167 459.167 C 167 460.175, 166.645 461, 166.211 461 C 165.777 461, 165.439 464.038, 165.461 467.750 C 165.499 474.334, 165.561 474.493, 167.979 474.221 C 170.969 473.885, 173.105 471.972, 171.250 471.292 C 168.839 470.408, 170.051 463, 172.607 463 C 173.373 463, 174 462.550, 174 462 C 174 461.450, 173.387 461, 172.639 461 C 171.726 461, 171.435 460.176, 171.755 458.500 C 172.133 456.525, 171.824 456, 170.283 456 C 169.211 456, 168.033 456.300, 167.667 456.667 M 308.667 456.667 C 308.300 457.033, 308 458.121, 308 459.083 C 308 460.046, 307.438 461.096, 306.750 461.417 C 305.869 461.828, 305.831 462.160, 306.620 462.540 C 307.419 462.925, 307.460 464.393, 306.766 467.650 C 305.511 473.533, 307.166 475.793, 311.338 473.892 C 314.179 472.597, 315.111 470.360, 312.371 471.411 C 311.008 471.934, 310.845 471.524, 311.371 468.893 C 311.717 467.164, 312 465.184, 312 464.492 C 312 463.800, 313.012 462.908, 314.250 462.511 C 316.156 461.899, 316.232 461.716, 314.750 461.321 C 313.692 461.038, 313 459.893, 313 458.427 C 313 456.740, 312.441 456, 311.167 456 C 310.158 456, 309.033 456.300, 308.667 456.667 M 432.667 456.667 C 432.300 457.033, 432 458.158, 432 459.167 C 432 460.175, 431.645 461, 431.211 461 C 430.777 461, 430.439 464.038, 430.461 467.750 C 430.499 474.334, 430.561 474.493, 432.979 474.221 C 435.969 473.885, 438.105 471.972, 436.250 471.292 C 433.839 470.408, 435.051 463, 437.607 463 C 438.373 463, 439 462.550, 439 462 C 439 461.450, 438.387 461, 437.639 461 C 436.726 461, 436.435 460.176, 436.755 458.500 C 437.133 456.525, 436.824 456, 435.283 456 C 434.211 456, 433.033 456.300, 432.667 456.667 M 323.500 460.709 C 319.705 461.653, 318 464.105, 318 468.620 C 318 471.780, 318.490 473.192, 319.838 473.913 C 322.852 475.527, 325.959 474, 328.066 469.872 C 329.152 467.742, 330.733 466, 331.579 466 C 332.426 466, 332.852 465.570, 332.527 465.044 C 332.202 464.518, 331.311 464.327, 330.548 464.620 C 329.652 464.964, 329.042 464.331, 328.830 462.837 C 328.490 460.449, 326.975 459.844, 323.500 460.709 M 458.354 460.682 C 453.046 461.745, 450.394 470.622, 454.491 473.617 C 457.170 475.576, 457.788 475.401, 461.115 471.750 C 467.338 464.922, 468.150 463.621, 465.580 464.608 C 464.647 464.966, 464.046 464.358, 463.830 462.837 C 463.492 460.463, 462.128 459.927, 458.354 460.682 M 122.263 467.550 C 122.033 473.818, 122.096 474, 124.513 474 C 126.638 474, 127.010 473.527, 127.070 470.750 C 127.165 466.361, 128.411 463.237, 129.417 464.865 C 130.001 465.810, 130.507 465.825, 131.589 464.926 C 134.487 462.521, 133.150 461.208, 127.750 461.153 L 122.500 461.100 122.263 467.550 M 137.033 462.461 C 136.366 463.264, 135.587 465.659, 135.302 467.782 C 134.584 473.139, 136.476 474.844, 142.627 474.384 C 147.431 474.024, 150.728 472.200, 148.228 471.284 C 147.308 470.947, 147.136 469.459, 147.606 465.909 L 148.258 461 143.251 461 C 140.081 461, 137.800 461.536, 137.033 462.461 M 177.489 462.966 C 177.832 464.047, 177.645 466.626, 177.073 468.697 C 175.696 473.684, 177.356 475.706, 181.338 473.892 C 184.211 472.583, 184.885 471, 182.570 471 C 181.432 471, 181.330 470.336, 182.070 467.757 C 183.684 462.130, 183.326 461, 179.933 461 C 177.338 461, 176.961 461.303, 177.489 462.966 M 188.315 467.585 C 188.140 473.670, 188.249 474, 190.436 474 C 192.448 474, 192.827 473.363, 193.406 469 C 193.770 466.250, 194.546 464, 195.128 464 C 195.821 464, 195.956 465.685, 195.519 468.864 C 194.781 474.231, 195.752 475.387, 199.750 473.901 C 201.970 473.076, 202.898 471, 201.047 471 C 200.494 471, 200.337 468.948, 200.673 466.113 L 201.252 461.226 194.876 461.198 L 188.500 461.171 188.315 467.585 M 207.458 463.424 C 206.506 464.877, 205.996 467.377, 206.185 469.669 C 206.461 473.023, 206.861 473.553, 209.446 473.996 L 212.391 474.501 209.696 475.729 C 206.726 477.082, 206.120 479.725, 208.564 480.663 C 213.270 482.469, 217.439 476.629, 218.620 466.574 L 219.275 461 214.161 461 C 209.852 461, 208.796 461.382, 207.458 463.424 M 233.655 462.829 C 231.331 465.397, 231.428 472.624, 233.804 473.895 C 234.855 474.458, 236.197 474.496, 237.020 473.987 C 237.849 473.475, 238.917 473.516, 239.605 474.087 C 240.372 474.724, 241.677 474.649, 243.388 473.869 C 246.059 472.652, 246.907 471, 244.861 471 C 244.081 471, 243.908 469.421, 244.314 466 L 244.906 461 240.108 461 C 236.730 461, 234.820 461.541, 233.655 462.829 M 249.501 463.002 C 249.848 464.096, 249.566 468.357, 248.875 472.471 C 248.184 476.585, 247.895 480.228, 248.234 480.567 C 248.572 480.906, 249.723 480.905, 250.790 480.567 C 252.292 480.090, 252.881 478.666, 253.398 474.267 C 254.274 466.817, 255.018 464, 256.108 464 C 257.629 464, 257.087 470.683, 255.458 472.035 C 254.390 472.921, 254.235 473.635, 254.955 474.355 C 255.674 475.074, 256.842 474.762, 258.747 473.339 C 261.096 471.586, 261.500 470.566, 261.500 466.392 L 261.500 461.500 255.185 461.256 C 249.285 461.029, 248.911 461.144, 249.501 463.002 M 266.479 466.303 C 266.468 469.162, 266.074 473.676, 265.603 476.336 C 264.768 481.052, 264.806 481.164, 267.124 480.836 C 268.995 480.571, 269.567 479.800, 269.817 477.204 C 270.078 474.484, 270.465 474.013, 272.029 474.509 C 276.552 475.945, 281.037 468.858, 278.998 463.496 C 278.211 461.426, 277.455 461.159, 272.306 461.134 L 266.500 461.107 266.479 466.303 M 284.667 461.667 C 283.483 462.850, 283.957 465.720, 285.555 467.045 C 286.410 467.755, 287.600 469.273, 288.200 470.418 C 289.232 472.387, 289.188 472.412, 287.396 470.880 C 286.353 469.990, 284.938 469.465, 284.250 469.714 C 282.166 470.469, 282.847 472.973, 285.459 474.163 C 287.428 475.061, 288.424 474.952, 290.459 473.619 C 293.049 471.922, 293.845 468.640, 291.951 467.470 C 291.233 467.026, 291.269 466.381, 292.063 465.424 C 293.988 463.105, 292.387 461, 288.698 461 C 286.847 461, 285.033 461.300, 284.667 461.667 M 342.479 466.303 C 342.468 469.162, 342.074 473.676, 341.603 476.336 C 340.768 481.052, 340.806 481.164, 343.124 480.836 C 344.995 480.571, 345.567 479.800, 345.817 477.204 C 346.078 474.484, 346.465 474.013, 348.029 474.509 C 352.552 475.945, 357.037 468.858, 354.998 463.496 C 354.211 461.426, 353.455 461.159, 348.306 461.134 L 342.500 461.107 342.479 466.303 M 361.115 463.581 C 356.698 469.196, 360.224 476.386, 366.268 474.088 C 370.020 472.662, 370.766 470.831, 367.446 471.198 C 365.914 471.367, 364.517 470.950, 364.272 470.250 C 364.019 469.531, 364.652 469, 365.762 469 C 368.277 469, 371.270 465.648, 370.829 463.324 C 370.584 462.031, 369.427 461.412, 366.856 461.196 C 363.911 460.950, 362.832 461.398, 361.115 463.581 M 375.427 464.790 C 375.412 466.831, 375.077 469.738, 374.681 471.250 C 374.042 473.695, 374.232 474, 376.401 474 C 378.353 474, 378.972 473.350, 379.495 470.750 C 380.754 464.494, 381.087 463.828, 382.408 464.924 C 383.267 465.636, 384.009 465.591, 384.824 464.776 C 387.288 462.312, 386.043 461.207, 380.727 461.144 L 375.455 461.081 375.427 464.790 M 401.699 462.780 C 400.677 463.910, 400 466.305, 400 468.794 C 400 473.984, 402.550 475.843, 407.091 473.962 C 410.649 472.488, 410.954 470.723, 407.500 471.589 C 403.789 472.521, 404.274 469.712, 408.072 468.279 C 410.640 467.310, 411.091 466.658, 410.822 464.310 C 410.544 461.887, 410.011 461.459, 406.949 461.201 C 404.468 460.993, 402.886 461.469, 401.699 462.780 M 416.699 462.780 C 415.677 463.910, 415 466.305, 415 468.794 C 415 473.984, 417.550 475.843, 422.091 473.962 C 425.576 472.519, 425.984 470.715, 422.636 471.555 C 419.795 472.268, 418.777 470.367, 419.652 465.989 C 420.266 462.918, 422 461.819, 422 464.500 C 422 465.350, 422.897 466, 424.070 466 C 425.644 466, 426.063 465.461, 425.820 463.750 C 425.383 460.676, 419.198 460.019, 416.699 462.780 M 442.500 467.755 C 442.500 474.343, 442.558 474.493, 444.979 474.221 C 447.987 473.883, 450.103 471.971, 448.228 471.284 C 447.308 470.947, 447.136 469.459, 447.606 465.909 C 448.256 461.016, 448.249 461, 445.379 461.005 L 442.500 461.009 442.500 467.755 M 468.263 467.524 C 468.051 473.325, 468.226 474, 469.946 474 C 471.880 474, 472.310 473.184, 473.505 467.250 C 474.552 462.049, 476.149 463.399, 475.423 468.872 C 474.684 474.437, 475.611 475.590, 479.425 473.852 C 481.978 472.689, 482.915 471, 481.008 471 C 480.456 471, 480.123 468.889, 480.258 466.250 L 480.500 461.500 474.500 461.274 L 468.500 461.048 468.263 467.524 M 140.607 464.582 C 139.700 466.945, 139.875 471, 140.883 471 C 141.828 471, 142.964 467.625, 142.986 464.750 C 143.003 462.568, 141.423 462.457, 140.607 464.582 M 211.667 463.667 C 210.668 464.666, 210.863 471, 211.893 471 C 213.049 471, 214 468.480, 214 465.418 C 214 463.062, 213.013 462.321, 211.667 463.667 M 237.667 463.667 C 237.300 464.033, 237 466.148, 237 468.367 C 237 473.186, 238.491 472.141, 239.307 466.750 C 239.837 463.247, 239.229 462.104, 237.667 463.667 M 364.345 464.543 C 363.535 466.653, 364.887 467.793, 366.039 465.971 C 367.263 464.035, 367.239 463, 365.969 463 C 365.401 463, 364.671 463.694, 364.345 464.543 M 404.695 465.057 C 404.353 466.366, 404.584 466.972, 405.329 466.724 C 406.767 466.245, 407.518 463, 406.190 463 C 405.664 463, 404.991 463.926, 404.695 465.057 M 457.579 465.712 C 457.182 467.478, 457.276 469.671, 457.787 470.584 C 458.617 472.066, 458.887 471.999, 460.320 469.954 C 461.653 468.051, 461.696 467.482, 460.577 466.582 C 459.836 465.987, 459.021 464.825, 458.765 464 C 458.494 463.125, 457.999 463.839, 457.579 465.712 M 271.601 468.095 C 270.862 472.715, 271.008 473.231, 272.747 472.157 C 274.305 471.193, 274.823 464.833, 273.384 464.320 C 272.736 464.089, 271.988 465.673, 271.601 468.095 M 322.777 466.386 C 322.225 469.273, 322.861 471, 324.476 471 C 326.697 471, 327.055 468.055, 325.075 466.075 C 323.236 464.236, 323.187 464.243, 322.777 466.386 M 347.601 468.095 C 346.862 472.715, 347.008 473.231, 348.747 472.157 C 350.305 471.193, 350.823 464.833, 349.384 464.320 C 348.736 464.089, 347.988 465.673, 347.601 468.095" stroke="none" fill="#04041c" fill-rule="evenodd"/></svg>